<svg xmlns="http://www.w3.org/2000/svg" viewBox="0 0 204.58 87.1"><defs><style>.cls-1{fill:#4d4d4d;}.cls-2{fill:#ff9700;}.cls-3{fill:#66f;}</style></defs><title>woody-logo</title><g id="Layer_2" data-name="Layer 2"><g id="Layer_1-2" data-name="Layer 1"><path class="cls-1" d="M89,64.22v2.7H84.56V80.86H81.22V66.92H76.79v-2.7Z"/><path class="cls-1" d="M93.85,80.23a6.13,6.13,0,0,1-2.39-2.4,7.7,7.7,0,0,1,0-7.15,6.19,6.19,0,0,1,2.45-2.39,7.45,7.45,0,0,1,6.91,0,6.23,6.23,0,0,1,2.44,2.39,7,7,0,0,1,.89,3.58,6.87,6.87,0,0,1-.91,3.57,6.42,6.42,0,0,1-2.48,2.4,7.26,7.26,0,0,1-3.49.84A7,7,0,0,1,93.85,80.23ZM99,77.73a3.2,3.2,0,0,0,1.27-1.33,4.4,4.4,0,0,0,.48-2.14,4,4,0,0,0-1-2.9,3.26,3.26,0,0,0-2.42-1,3.18,3.18,0,0,0-2.39,1,4,4,0,0,0-1,2.9,4.12,4.12,0,0,0,.94,2.89,3.1,3.1,0,0,0,2.38,1A3.5,3.5,0,0,0,99,77.73Z"/><path class="cls-1" d="M119.26,67.66,111.08,87.1h-3.55l2.86-6.57L105.1,67.66h3.74l3.41,9.22,3.46-9.22Z"/><path class="cls-1" d="M123.19,80.49a5.19,5.19,0,0,1-2-1.58,4.05,4.05,0,0,1-.82-2.22h3.36a1.79,1.79,0,0,0,.75,1.26,2.57,2.57,0,0,0,1.63.5,2.47,2.47,0,0,0,1.49-.38,1.15,1.15,0,0,0,.54-1,1,1,0,0,0-.66-1,11.37,11.37,0,0,0-2.08-.7,18.42,18.42,0,0,1-2.42-.74,4.27,4.27,0,0,1-1.62-1.17,3.16,3.16,0,0,1-.68-2.12,3.42,3.42,0,0,1,.63-2A4.23,4.23,0,0,1,123.08,68a6.79,6.79,0,0,1,2.78-.53,5.73,5.73,0,0,1,3.77,1.18,4.38,4.38,0,0,1,1.54,3.18H128a1.77,1.77,0,0,0-.65-1.25,2.45,2.45,0,0,0-1.57-.46,2.48,2.48,0,0,0-1.39.33,1.05,1.05,0,0,0-.49.93,1.08,1.08,0,0,0,.67,1,10.2,10.2,0,0,0,2.07.71,15.52,15.52,0,0,1,2.36.74A4.11,4.11,0,0,1,130.59,75a3.25,3.25,0,0,1,.7,2.11,3.48,3.48,0,0,1-.63,2,4.08,4.08,0,0,1-1.81,1.42,6.88,6.88,0,0,1-2.75.51A7,7,0,0,1,123.19,80.49Z"/><path class="cls-2" d="M109.07,13.32a3,3,0,0,1-3-3,4.19,4.19,0,1,0-8.37,0,3,3,0,0,1-6.09,0,10.28,10.28,0,1,1,20.55,0A3,3,0,0,1,109.07,13.32Z"/><path class="cls-2" d="M70.1,13.32a3,3,0,0,1-3-3,4.19,4.19,0,1,0-8.37,0,3,3,0,0,1-6.09,0,10.28,10.28,0,1,1,20.55,0A3,3,0,0,1,70.1,13.32Z"/><path class="cls-3" d="M22.07,39.92,29,52.87,44.16,18.61H34.64a.34.34,0,0,0-.3.19L28.11,33.25l-6-13.31-6,13.31L9.82,18.8a.34.34,0,0,0-.3-.19H0L15.21,52.87Z"/><path class="cls-3" d="M78.18,26.79A15.52,15.52,0,0,0,72,20.9a20.42,20.42,0,0,0-18,0,15.49,15.49,0,0,0-6.18,5.89,17.44,17.44,0,0,0-2.27,9,17.79,17.79,0,0,0,2.24,9.1A15.33,15.33,0,0,0,54,50.79h0a20.49,20.49,0,0,0,18,0,15.32,15.32,0,0,0,6.21-5.92,17.64,17.64,0,0,0,2.28-9.06A17.54,17.54,0,0,0,78.18,26.79ZM65,44.11a5,5,0,0,1-1.21.26,8,8,0,0,1-.84,0,6.46,6.46,0,0,1-5.09-2.29,9.4,9.4,0,0,1-1.92-6.31,9.07,9.07,0,0,1,2-6.26A6.59,6.59,0,0,1,63,27.28a6.7,6.7,0,0,1,5.11,2.26,9,9,0,0,1,2,6.27C70.16,41.23,67.35,43.31,65,44.11Z"/><path class="cls-3" d="M117,26.79a15.52,15.52,0,0,0-6.19-5.89,20.42,20.42,0,0,0-18,0,15.43,15.43,0,0,0-6.18,5.89,17.44,17.44,0,0,0-2.27,9,17.79,17.79,0,0,0,2.24,9.1,15.27,15.27,0,0,0,6.15,5.88h0a20.49,20.49,0,0,0,18,0A15.32,15.32,0,0,0,117,44.87a17.64,17.64,0,0,0,2.28-9.06A17.54,17.54,0,0,0,117,26.79ZM103.82,44.11a5,5,0,0,1-1.21.26,8.13,8.13,0,0,1-.84,0,6.46,6.46,0,0,1-5.09-2.29,9.4,9.4,0,0,1-1.92-6.31,9.07,9.07,0,0,1,2-6.26,6.59,6.59,0,0,1,5.08-2.27A6.7,6.7,0,0,1,107,29.54a9,9,0,0,1,2,6.27C109,41.23,106.18,43.31,103.82,44.11Z"/><path class="cls-3" d="M158.46,1.89h-9.62a.34.34,0,0,0-.34.34V20L147,19.58a20.9,20.9,0,0,0-5.68-.76,19.06,19.06,0,0,0-9,2.08,15.43,15.43,0,0,0-6.18,5.89,17.44,17.44,0,0,0-2.28,9,17.8,17.8,0,0,0,2.25,9.1,15.27,15.27,0,0,0,6.15,5.88,19.06,19.06,0,0,0,9,2.08,19.27,19.27,0,0,0,9-2.08,15.32,15.32,0,0,0,6.21-5.92,17.4,17.4,0,0,0,2.26-8.56l0-.67V2.23A.34.34,0,0,0,158.46,1.89ZM144,43.64a7,7,0,0,1-2.68.53h-.18a6.42,6.42,0,0,1-4.88-2.29,9.39,9.39,0,0,1-1.92-6.3,9.08,9.08,0,0,1,2-6.27A6.59,6.59,0,0,1,141.38,27a6.68,6.68,0,0,1,5.11,2.27,8.77,8.77,0,0,1,2,5.92v.67C148.43,39.81,146.9,42.41,144,43.64Z"/><path class="cls-3" d="M204.53,19.58,182.88,69.92a1.74,1.74,0,0,1-1.59,1h-9.61a1.74,1.74,0,0,1-1.58-2.46l7.34-15.93-14.13-33a.67.67,0,0,1,.62-.94h10.45a1.31,1.31,0,0,1,1.23.85l8.53,19.25L193,19.51a1.31,1.31,0,0,1,1.23-.87h9.7A.68.68,0,0,1,204.53,19.58Z"/></g></g></svg>