<svg xmlns="http://www.w3.org/2000/svg" viewBox="0 0 94.15 29.94"><defs><style>.cls-1{fill:#66f;}.cls-2{fill:#ff9700;}</style></defs><title>woody-loogo</title><g id="Layer_2" data-name="Layer 2"><g id="Layer_1-2" data-name="Layer 1"><path class="cls-1" d="M91,.68a3.21,3.21,0,0,1,1.23.24,3.17,3.17,0,0,1,1,.71,2.93,2.93,0,0,1,.67,1,3.26,3.26,0,0,1,.23,1.21,3.16,3.16,0,0,1-.24,1.22,3,3,0,0,1-.69,1,3,3,0,0,1-1,.68,3.17,3.17,0,0,1-2.42,0,3.58,3.58,0,0,1-1-.71,3.11,3.11,0,0,1-.67-1,3,3,0,0,1-.23-1.18A3.48,3.48,0,0,1,88,3a3.3,3.3,0,0,1,.35-.8,3,3,0,0,1,1.13-1.12A3.07,3.07,0,0,1,91,.68Zm0,.53a2.54,2.54,0,0,0-1,.19,2.39,2.39,0,0,0-.83.56,2.58,2.58,0,0,0-.59.87,2.54,2.54,0,0,0-.21,1,2.51,2.51,0,0,0,.76,1.84,2.81,2.81,0,0,0,.86.59,2.6,2.6,0,0,0,2,0,2.73,2.73,0,0,0,.87-.57,2.37,2.37,0,0,0,.57-.83,2.37,2.37,0,0,0,.21-1,2.71,2.71,0,0,0-.19-1A2.68,2.68,0,0,0,92,1.41,2.7,2.7,0,0,0,91,1.21ZM89.68,2h1.37a2,2,0,0,1,1.13.25.85.85,0,0,1,.37.76.86.86,0,0,1-.2.59,1.07,1.07,0,0,1-.56.34l.78,1.56h-.95L91,4.1h-.42V5.53h-.85Zm.85.54v1H91a1,1,0,0,0,.55-.12.4.4,0,0,0,.18-.37.44.44,0,0,0-.19-.39,1,1,0,0,0-.58-.13Z"/><path class="cls-2" d="M46,5.62a1.28,1.28,0,0,1-1.28-1.28,1.77,1.77,0,0,0-3.54,0,1.29,1.29,0,0,1-2.57,0,4.34,4.34,0,0,1,8.68,0A1.28,1.28,0,0,1,46,5.62Z"/><path class="cls-2" d="M29.58,5.62a1.28,1.28,0,0,1-1.29-1.28,1.77,1.77,0,1,0-3.53,0,1.29,1.29,0,0,1-2.57,0,4.34,4.34,0,1,1,8.67,0A1.28,1.28,0,0,1,29.58,5.62Z"/><path class="cls-1" d="M9.31,16.85l2.91,5.46L18.63,7.85h-4a.13.13,0,0,0-.13.08L11.86,14,9.32,8.41,6.77,14,4.14,7.93A.13.13,0,0,0,4,7.85H0L6.42,22.31Z"/><path class="cls-1" d="M33,11.3a6.62,6.62,0,0,0-2.61-2.48,8.6,8.6,0,0,0-7.58,0,6.56,6.56,0,0,0-2.61,2.48,7.36,7.36,0,0,0-1,3.81A7.52,7.52,0,0,0,20.18,19a6.44,6.44,0,0,0,2.59,2.48h0a8.09,8.09,0,0,0,3.79.88,8.2,8.2,0,0,0,3.81-.88A6.56,6.56,0,0,0,33,18.93a7.5,7.5,0,0,0,1-3.82A7.46,7.46,0,0,0,33,11.3Zm-5.57,7.31a1.72,1.72,0,0,1-.51.11l-.35,0a2.71,2.71,0,0,1-2.15-1,3.93,3.93,0,0,1-.81-2.66,3.82,3.82,0,0,1,.84-2.64,2.89,2.89,0,0,1,4.3,0,3.78,3.78,0,0,1,.86,2.64C29.6,17.4,28.42,18.28,27.42,18.61Z"/><path class="cls-1" d="M49.37,11.3a6.49,6.49,0,0,0-2.61-2.48,8.6,8.6,0,0,0-7.58,0,6.62,6.62,0,0,0-2.61,2.48,7.45,7.45,0,0,0-1,3.81A7.51,7.51,0,0,0,36.56,19a6.47,6.47,0,0,0,2.6,2.48h0a8.06,8.06,0,0,0,3.79.88,8.18,8.18,0,0,0,3.8-.88,6.5,6.5,0,0,0,2.62-2.5,7.4,7.4,0,0,0,1-3.82A7.36,7.36,0,0,0,49.37,11.3Zm-5.56,7.31a1.87,1.87,0,0,1-.51.11l-.36,0a2.68,2.68,0,0,1-2.14-1A3.94,3.94,0,0,1,40,15.11a3.82,3.82,0,0,1,.85-2.64,2.76,2.76,0,0,1,2.14-1,2.81,2.81,0,0,1,2.16,1A3.78,3.78,0,0,1,46,15.11C46,17.4,44.8,18.28,43.81,18.61Z"/><path class="cls-1" d="M66.86.8H62.8a.14.14,0,0,0-.14.14v7.5L62,8.26a8.79,8.79,0,0,0-2.39-.32,8.09,8.09,0,0,0-3.79.88,6.49,6.49,0,0,0-2.61,2.48,7.36,7.36,0,0,0-1,3.81,7.52,7.52,0,0,0,1,3.84,6.44,6.44,0,0,0,2.59,2.48,8.62,8.62,0,0,0,7.59,0A6.44,6.44,0,0,0,66,18.93a7.26,7.26,0,0,0,1-3.61V.94A.15.15,0,0,0,66.86.8ZM60.75,18.41a3,3,0,0,1-1.14.23h-.07a2.7,2.7,0,0,1-2.06-1A3.93,3.93,0,0,1,56.67,15a3.82,3.82,0,0,1,.84-2.64,2.89,2.89,0,0,1,4.3,0,3.69,3.69,0,0,1,.86,2.49v.29A3.27,3.27,0,0,1,60.75,18.41Z"/><path class="cls-1" d="M86.3,8.26,77.17,29.5a.73.73,0,0,1-.67.44H72.44a.72.72,0,0,1-.66-1l3.09-6.72-6-13.93a.28.28,0,0,1,.26-.39h4.41a.55.55,0,0,1,.52.36l3.6,8.12,3.73-8.12A.54.54,0,0,1,82,7.87H86A.28.28,0,0,1,86.3,8.26Z"/></g></g></svg>